<svg xmlns="http://www.w3.org/2000/svg" viewBox="0 0 460.38 604.66"><defs><style>.a{fill:#b28fc2;stroke:#000;stroke-width:16px;}.a,.n,.o{stroke-miterlimit:10;}.b{fill:#ae91c4;}.c{fill:#c49fca;}.d{fill:#d5a1c9;}.e{fill:#6b489d;}.f{font-size:62px;fill:#dcc6e1;font-family:Verdana;}.g{font-size:24px;fill:#6d2b8a;}.g,.h,.i,.k,.l,.m{font-family:Verdana-Italic, Verdana;font-style:italic;}.h,.i{font-size:23px;}.h{fill:#2d2e8b;}.i{fill:#512e90;}.j{fill:#231f20;}.k,.l,.m{font-size:18px;}.k{fill:#b584ba;}.l{fill:#b987bc;}.m{fill:#8d76b6;}.n,.o{fill:none;}.n{stroke:#030202;stroke-width:1.01px;}.o{stroke:#231f20;stroke-width:3px;}</style></defs><polygon class="a" points="291.22 8 103.23 8 9.24 170.8 103.23 333.61 291.22 333.61 385.22 170.8 291.22 8"/><polygon class="b" points="248.24 32.91 277.45 32.58 321.84 110.49 207.03 309.02 117 309.02 103.58 283.47 248.24 32.91"/><polygon class="c" points="58.62 208.44 161.24 32.58 248.93 32.58 103.67 285.89 58.62 208.44"/><polygon class="d" points="36.77 170.8 117 32.58 159.64 33.47 59.63 209.03 36.77 170.8"/><polygon class="e" points="209.39 308.01 322.6 110.27 358.44 170.59 278.21 308.8 209.39 308.01"/><text x="-3.08" y="-28.6"/><text class="f" transform="translate(275.26 301.6) rotate(-60)">fmtR</text><text class="g" transform="matrix(0.5, -0.86, 0.86, 0.5, 59.89, 187.96)">0.254896487</text><text class="g" transform="translate(143.97 127) rotate(-60)">25.48%</text><text class="h" transform="matrix(0.5, -0.86, 0.86, 0.5, 195.26, 305.19)">(b=1.2***, p&lt;0.01)</text><text class="i" transform="translate(124.45 303.42) rotate(-60)">(b=1.2, 95% CI(1.0,1.4))</text><rect class="j" x="152.05" y="236.92" width="230.52" height="4.1" transform="matrix(0.5, -0.87, 0.87, 0.5, -76.38, 322.38)"/><text class="g" transform="matrix(0.51, -0.86, 0.86, 0.51, 104.27, 254.5)">2.54896 e-1</text><text class="k" transform="matrix(0.54, -0.84, 0.84, 0.54, 81.99, 220.59)">percentage</text><text class="l" transform="matrix(0.51, -0.86, 0.86, 0.51, 185.01, 114.65)">scientific</text><text class="m" transform="translate(180.15 264.53) rotate(-60)">statistics reporting</text><rect class="j" x="32.52" y="185.93" width="293.1" height="2.19" transform="translate(-75.51 219.99) rotate(-60)"/><rect class="j" x="11.7" y="149.27" width="202.04" height="1.17" transform="translate(-76.5 143.94) rotate(-60)"/><polygon class="n" points="282.85 23.29 111.61 23.29 25.99 170.8 111.61 318.31 282.85 318.31 368.47 170.8 282.85 23.29"/><polygon class="o" points="277.45 32.58 117 32.58 36.77 170.8 117 309.02 277.45 309.02 357.68 170.8 277.45 32.58"/></svg>