<svg xmlns="http://www.w3.org/2000/svg" viewBox="0 0 341.61 394.45"><defs><style>.a{fill:#b28fc2;stroke:#000;stroke-width:16px;}.a,.k,.l{stroke-miterlimit:10;}.b{fill:#ae91c4;}.c{fill:#ba9ecb;}.d{fill:#beabcc;}.e{fill:#6b489d;}.f{font-size:62px;font-family:Verdana;}.f,.j{fill:#d1bfdd;}.g{font-size:24px;}.g,.h{fill:#492a7e;}.g,.h,.j{font-family:Verdana-Italic, Verdana;font-style:italic;}.h{font-size:23px;}.i{fill:#231f20;}.j{font-size:18px;}.k,.l{fill:none;}.k{stroke:#030202;stroke-width:1.01px;}.l{stroke:#231f20;stroke-width:3px;}</style></defs><polygon class="a" points="333.61 103.23 170.8 9.24 8 103.23 8 291.22 170.81 385.22 333.61 291.22 333.61 103.23"/><polygon class="b" points="283.93 103.32 309.39 117.64 308.88 207.3 110.18 321.83 32.22 276.82 33.37 247.98 283.93 103.32"/><polygon class="c" points="31.95 160.52 208.75 59.53 284.69 103.38 32.24 250.12 31.95 160.52"/><polygon class="d" points="31.85 117 170.44 37.41 206.92 59.5 32.53 161.53 31.85 117"/><polygon class="e" points="112.74 322.13 309.64 207.49 310.52 277.64 171.94 357.23 112.74 322.13"/><text class="f" transform="translate(173 349.53) rotate(-30)">fmtR</text><text class="g" transform="matrix(0.87, -0.5, 0.5, 0.87, 43.29, 143.45)">0.333333333</text><text class="g" transform="translate(146.65 132.66) rotate(-30)">33.34%</text><text class="h" transform="matrix(0.87, -0.5, 0.5, 0.87, 101.91, 312.64)">(ß=0.3***, p&lt;0.01)</text><text class="h" transform="translate(41.53 275.68) rotate(-30)">(ß=0.3, 95% CI(0.2,0.4))</text><rect class="i" x="123.29" y="265.12" width="230.52" height="4.1" transform="translate(-131.13 152.89) rotate(-30)"/><text class="g" transform="translate(48.47 223.26) rotate(-29.14)">3.33333 e-1</text><text class="j" transform="matrix(0.89, -0.46, 0.46, 0.89, 46.08, 182.76)">percentage</text><text class="j" transform="translate(188.32 142.52) rotate(-29.14)">scientific</text><text class="j" transform="translate(64.86 295.61) rotate(-30)">coefficients, intervals, p-values</text><rect class="i" x="41.56" y="176.97" width="293.1" height="2.19" transform="translate(-93.34 115.73) rotate(-30)"/><rect class="i" x="48.21" y="112.11" width="202.04" height="1.17" transform="translate(-65.86 87.53) rotate(-30)"/><polygon class="k" points="318.71 112.29 170.41 26.67 22.51 111.61 22.9 282.17 171.2 367.78 319.1 282.85 318.71 112.29"/><polygon class="l" points="309.39 117.64 170.44 37.41 31.85 117 32.22 276.82 171.17 357.04 309.76 277.45 309.39 117.64"/></svg>